<svg width="195" height="28" viewBox="0 0 195 28" fill="none" xmlns="http://www.w3.org/2000/svg">
<circle cx="18.375" cy="9.18748" r="6.12498" fill="#3F6EF0"/>
<path fill-rule="evenodd" clip-rule="evenodd" d="M6.125 15.3124C6.125 15.3124 6.125 15.3124 6.125 15.3125C6.125 18.6952 8.86724 21.4374 12.25 21.4374V21.4374C12.25 18.0547 14.9922 15.3124 18.375 15.3124H18.375C18.375 11.9297 15.6327 9.18747 12.25 9.18747C12.25 9.18747 12.25 9.18747 12.25 9.18747C12.25 12.5702 9.50772 15.3124 6.125 15.3124Z" fill="#3F6EF0"/>
<circle cx="6.12498" cy="21.4375" r="6.12498" fill="#3F6EF0"/>
<circle cx="42.875" cy="6.12498" r="6.12498" fill="#3F6EF0"/>
<path fill-rule="evenodd" clip-rule="evenodd" d="M30.625 12.2499C30.625 12.2499 30.625 12.2499 30.625 12.25C30.625 15.6327 33.3672 18.3749 36.7499 18.3749V18.3749C36.7499 14.9922 39.4921 12.2499 42.8749 12.2499H42.875C42.875 8.86721 40.1327 6.12497 36.75 6.12497C36.75 6.12497 36.7499 6.12497 36.7499 6.12497C36.7499 9.50767 34.0077 12.2499 30.625 12.2499Z" fill="#3F6EF0"/>
<circle cx="30.625" cy="18.375" r="6.12498" fill="#3F6EF0"/>
<path d="M68.9371 11.8392L66.7479 12.4588C66.6102 12.0939 66.4071 11.7394 66.1387 11.3952C65.8771 11.0441 65.5191 10.755 65.0647 10.5278C64.6104 10.3006 64.0287 10.187 63.3196 10.187C62.349 10.187 61.5401 10.4107 60.893 10.8582C60.2527 11.2988 59.9326 11.8599 59.9326 12.5414C59.9326 13.1472 60.1529 13.6256 60.5935 13.9767C61.0341 14.3278 61.7225 14.6204 62.6587 14.8544L65.0131 15.4327C66.4312 15.7769 67.4879 16.3036 68.1832 17.0126C68.8785 17.7148 69.2262 18.6201 69.2262 19.7284C69.2262 20.6371 68.9646 21.4494 68.4414 22.1654C67.9251 22.8813 67.2023 23.4458 66.2729 23.8589C65.3435 24.2719 64.2627 24.4784 63.0305 24.4784C61.4127 24.4784 60.0738 24.1273 59.0136 23.4252C57.9534 22.723 57.2822 21.6973 57 20.348L59.3131 19.7697C59.5334 20.6233 59.9498 21.2636 60.5625 21.6904C61.1821 22.1172 61.991 22.3306 62.9892 22.3306C64.1251 22.3306 65.0269 22.0896 65.6946 21.6078C66.3693 21.119 66.7066 20.5338 66.7066 19.8523C66.7066 19.3016 66.5138 18.8403 66.1283 18.4686C65.7428 18.09 65.1508 17.8077 64.3522 17.6219L61.7087 17.0023C60.2562 16.6581 59.1891 16.1246 58.5076 15.4017C57.833 14.672 57.4957 13.7599 57.4957 12.6653C57.4957 11.7704 57.7469 10.9787 58.2495 10.2903C58.7589 9.60187 59.4507 9.06146 60.325 8.66907C61.2062 8.27667 62.2044 8.08048 63.3196 8.08048C64.8892 8.08048 66.1215 8.42468 67.0164 9.11309C67.9182 9.8015 68.5584 10.7102 68.9371 11.8392Z" fill="#3F3F3F"/>
<path d="M79.5446 24.4784C78.0163 24.4784 76.698 24.1411 75.5897 23.4665C74.4882 22.7849 73.638 21.8349 73.0391 20.6164C72.4471 19.3911 72.1511 17.9661 72.1511 16.3414C72.1511 14.7168 72.4471 13.2849 73.0391 12.0457C73.638 10.7997 74.471 9.82904 75.5381 9.13375C76.612 8.43157 77.8649 8.08048 79.2968 8.08048C80.1229 8.08048 80.9386 8.21816 81.7441 8.49352C82.5495 8.76889 83.2827 9.21636 83.9436 9.83593C84.6044 10.4486 85.1311 11.2609 85.5235 12.2729C85.9159 13.2849 86.1121 14.5309 86.1121 16.011V17.0436H73.8859V14.9371H83.6338C83.6338 14.0421 83.4548 13.2436 83.0968 12.5414C82.7457 11.8392 82.2432 11.285 81.5892 10.8789C80.9421 10.4727 80.178 10.2696 79.2968 10.2696C78.3261 10.2696 77.4863 10.5106 76.7772 10.9925C76.075 11.4675 75.5346 12.087 75.156 12.8512C74.7774 13.6153 74.5881 14.4345 74.5881 15.3088V16.7132C74.5881 17.911 74.7946 18.9264 75.2076 19.7594C75.6276 20.5855 76.2093 21.2154 76.9527 21.6491C77.6962 22.0759 78.5602 22.2893 79.5446 22.2893C80.1848 22.2893 80.7631 22.1998 81.2794 22.0208C81.8026 21.8349 82.2535 21.5596 82.6321 21.1947C83.0108 20.823 83.3033 20.3617 83.5099 19.811L85.8642 20.4719C85.6164 21.2704 85.1999 21.9726 84.6148 22.5784C84.0296 23.1773 83.3068 23.6455 82.4463 23.9828C81.5858 24.3132 80.6185 24.4784 79.5446 24.4784Z" fill="#3F3F3F"/>
<path d="M96.4692 24.4784C94.9409 24.4784 93.6226 24.1411 92.5143 23.4665C91.4128 22.7849 90.5626 21.8349 89.9637 20.6164C89.3717 19.3911 89.0757 17.9661 89.0757 16.3414C89.0757 14.7168 89.3717 13.2849 89.9637 12.0457C90.5626 10.7997 91.3956 9.82904 92.4627 9.13375C93.5366 8.43157 94.7895 8.08048 96.2214 8.08048C97.0475 8.08048 97.8632 8.21816 98.6687 8.49352C99.4741 8.76889 100.207 9.21636 100.868 9.83593C101.529 10.4486 102.056 11.2609 102.448 12.2729C102.84 13.2849 103.037 14.5309 103.037 16.011V17.0436H90.8105V14.9371H100.558C100.558 14.0421 100.379 13.2436 100.021 12.5414C99.6703 11.8392 99.1678 11.285 98.5138 10.8789C97.8667 10.4727 97.1025 10.2696 96.2214 10.2696C95.2507 10.2696 94.4109 10.5106 93.7018 10.9925C92.9996 11.4675 92.4592 12.087 92.0806 12.8512C91.702 13.6153 91.5126 14.4345 91.5126 15.3088V16.7132C91.5126 17.911 91.7192 18.9264 92.1322 19.7594C92.5521 20.5855 93.1339 21.2154 93.8773 21.6491C94.6208 22.0759 95.4848 22.2893 96.4692 22.2893C97.1094 22.2893 97.6877 22.1998 98.204 22.0208C98.7272 21.8349 99.1781 21.5596 99.5567 21.1947C99.9354 20.823 100.228 20.3617 100.434 19.811L102.789 20.4719C102.541 21.2704 102.125 21.9726 101.539 22.5784C100.954 23.1773 100.231 23.6455 99.3709 23.9828C98.5103 24.3132 97.5431 24.4784 96.4692 24.4784Z" fill="#3F3F3F"/>
<path d="M109.016 18.3653L108.974 15.3501H109.47L116.409 8.287H119.424L112.031 15.7631H111.824L109.016 18.3653ZM106.744 24.148V3H109.181V24.148H106.744ZM116.822 24.148L110.626 16.3001L112.361 14.6066L119.92 24.148H116.822Z" fill="#3F3F3F"/>
<path d="M135.702 12.8099L131.675 13.0577C131.606 12.7135 131.458 12.4037 131.231 12.1283C131.004 11.8461 130.704 11.6224 130.333 11.4571C129.968 11.285 129.531 11.199 129.021 11.199C128.34 11.199 127.765 11.3435 127.297 11.6327C126.829 11.9149 126.595 12.2936 126.595 12.7686C126.595 13.1472 126.746 13.4673 127.049 13.7289C127.352 13.9905 127.872 14.2005 128.608 14.3588L131.479 14.9371C133.021 15.2537 134.171 15.7631 134.928 16.4653C135.685 17.1675 136.064 18.09 136.064 19.2327C136.064 20.2722 135.757 21.1844 135.145 21.9692C134.539 22.754 133.706 23.3667 132.646 23.8072C131.592 24.2409 130.377 24.4578 129.001 24.4578C126.901 24.4578 125.228 24.0206 123.982 23.1464C122.743 22.2652 122.017 21.0674 121.803 19.5529L126.13 19.3257C126.261 19.9659 126.577 20.4547 127.08 20.792C127.582 21.1224 128.226 21.2876 129.011 21.2876C129.782 21.2876 130.401 21.1396 130.87 20.8436C131.345 20.5407 131.586 20.1518 131.592 19.6768C131.586 19.2775 131.417 18.9505 131.086 18.6958C130.756 18.4342 130.247 18.2345 129.558 18.0969L126.811 17.5496C125.262 17.2398 124.109 16.7028 123.352 15.9387C122.602 15.1746 122.227 14.2005 122.227 13.0164C122.227 11.9975 122.502 11.1198 123.053 10.3832C123.61 9.64661 124.392 9.07867 125.397 8.67939C126.409 8.28012 127.593 8.08048 128.949 8.08048C130.952 8.08048 132.529 8.50385 133.678 9.35059C134.835 10.1973 135.509 11.3504 135.702 12.8099Z" fill="#3F3F3F"/>
<path d="M143.357 24.4475C142.345 24.4475 141.443 24.2719 140.651 23.9208C139.859 23.5628 139.233 23.0362 138.772 22.3409C138.317 21.6387 138.09 20.7645 138.09 19.7181C138.09 18.8369 138.252 18.0969 138.576 17.4979C138.899 16.899 139.34 16.4171 139.897 16.0523C140.455 15.6874 141.088 15.4121 141.797 15.2262C142.513 15.0403 143.264 14.9095 144.048 14.8338C144.971 14.7374 145.714 14.6479 146.279 14.5653C146.843 14.4758 147.253 14.345 147.508 14.1729C147.762 14.0008 147.89 13.7461 147.89 13.4088V13.3468C147.89 12.6928 147.683 12.1869 147.27 11.8289C146.864 11.4709 146.286 11.2919 145.535 11.2919C144.744 11.2919 144.114 11.4675 143.646 11.8186C143.178 12.1628 142.868 12.5965 142.716 13.1196L138.648 12.7892C138.854 11.8254 139.26 10.9925 139.866 10.2903C140.472 9.58121 141.253 9.03737 142.21 8.65874C143.174 8.27323 144.289 8.08048 145.556 8.08048C146.437 8.08048 147.28 8.18374 148.086 8.39026C148.898 8.59679 149.618 8.9169 150.244 9.35059C150.877 9.78429 151.377 10.3419 151.741 11.0234C152.106 11.6981 152.289 12.507 152.289 13.4501V24.148H148.117V21.9485H147.993C147.738 22.4442 147.398 22.8813 146.971 23.2599C146.544 23.6317 146.031 23.9243 145.432 24.1377C144.833 24.3442 144.141 24.4475 143.357 24.4475ZM144.616 21.4116C145.263 21.4116 145.835 21.2842 146.33 21.0295C146.826 20.7679 147.215 20.4168 147.497 19.9762C147.78 19.5356 147.921 19.0365 147.921 18.4789V16.7958C147.783 16.8853 147.594 16.9679 147.353 17.0436C147.119 17.1124 146.854 17.1778 146.558 17.2398C146.262 17.2949 145.966 17.3465 145.67 17.3947C145.374 17.436 145.105 17.4739 144.864 17.5083C144.348 17.584 143.897 17.7045 143.511 17.8697C143.126 18.0349 142.826 18.2586 142.613 18.5409C142.4 18.8163 142.293 19.1605 142.293 19.5735C142.293 20.1724 142.51 20.6302 142.943 20.9469C143.384 21.2567 143.942 21.4116 144.616 21.4116Z" fill="#3F3F3F"/>
<path d="M160.1 3V24.148H155.701V3H160.1Z" fill="#3F3F3F"/>
<path d="M170.853 24.4578C169.221 24.4578 167.817 24.1273 166.639 23.4665C165.469 22.7987 164.567 21.8556 163.934 20.6371C163.301 19.4117 162.984 17.9626 162.984 16.2898C162.984 14.6582 163.301 13.2264 163.934 11.9941C164.567 10.7618 165.459 9.8015 166.608 9.11309C167.765 8.42468 169.121 8.08048 170.677 8.08048C171.723 8.08048 172.697 8.24914 173.599 8.58646C174.508 8.9169 175.3 9.416 175.974 10.0838C176.656 10.7515 177.186 11.5914 177.565 12.6033C177.943 13.6084 178.132 14.7856 178.132 16.1349V17.3431H164.739V14.6169H173.992C173.992 13.9836 173.854 13.4226 173.579 12.9338C173.303 12.445 172.921 12.0629 172.432 11.7876C171.951 11.5053 171.39 11.3642 170.749 11.3642C170.082 11.3642 169.489 11.5191 168.973 11.8289C168.464 12.1318 168.064 12.5414 167.775 13.0577C167.486 13.5671 167.338 14.1351 167.331 14.7615V17.3534C167.331 18.1382 167.476 18.8163 167.765 19.3876C168.061 19.959 168.478 20.3996 169.014 20.7094C169.551 21.0192 170.188 21.1741 170.925 21.1741C171.414 21.1741 171.861 21.1052 172.267 20.9675C172.673 20.8299 173.021 20.6233 173.31 20.348C173.599 20.0726 173.82 19.7353 173.971 19.336L178.04 19.6045C177.833 20.582 177.41 21.4357 176.769 22.1654C176.136 22.8882 175.317 23.4527 174.312 23.8589C173.314 24.2581 172.161 24.4578 170.853 24.4578Z" fill="#3F3F3F"/>
<path d="M194.2 12.8099L190.173 13.0577C190.104 12.7135 189.956 12.4037 189.729 12.1283C189.502 11.8461 189.202 11.6224 188.83 11.4571C188.466 11.285 188.028 11.199 187.519 11.199C186.837 11.199 186.263 11.3435 185.795 11.6327C185.326 11.9149 185.092 12.2936 185.092 12.7686C185.092 13.1472 185.244 13.4673 185.547 13.7289C185.85 13.9905 186.369 14.2005 187.106 14.3588L189.977 14.9371C191.519 15.2537 192.668 15.7631 193.426 16.4653C194.183 17.1675 194.561 18.09 194.561 19.2327C194.561 20.2722 194.255 21.1844 193.642 21.9692C193.037 22.754 192.204 23.3667 191.143 23.8072C190.09 24.2409 188.875 24.4578 187.498 24.4578C185.399 24.4578 183.726 24.0206 182.48 23.1464C181.241 22.2652 180.514 21.0674 180.301 19.5529L184.628 19.3257C184.758 19.9659 185.075 20.4547 185.578 20.792C186.08 21.1224 186.724 21.2876 187.509 21.2876C188.28 21.2876 188.899 21.1396 189.367 20.8436C189.842 20.5407 190.083 20.1518 190.09 19.6768C190.083 19.2775 189.915 18.9505 189.584 18.6958C189.254 18.4342 188.744 18.2345 188.056 18.0969L185.309 17.5496C183.76 17.2398 182.607 16.7028 181.85 15.9387C181.1 15.1746 180.724 14.2005 180.724 13.0164C180.724 11.9975 181 11.1198 181.55 10.3832C182.108 9.64661 182.889 9.07867 183.894 8.67939C184.906 8.28012 186.091 8.08048 187.447 8.08048C189.45 8.08048 191.026 8.50385 192.176 9.35059C193.333 10.1973 194.007 11.3504 194.2 12.8099Z" fill="#3F3F3F"/>
</svg>
